HIERARCHY
ROOT Hips
{
	OFFSET 0.000000 0.000000 0.000000
	CHANNELS 6 Xposition Yposition Zposition Zrotation Yrotation Xrotation 
	JOINT LHipJoint
	{
		OFFSET 0.000000 0.000000 0.000000
		CHANNELS 3 Zrotation Yrotation Xrotation
		JOINT LeftUpLeg
		{
			OFFSET 1.363060 -1.794630 0.839290
			CHANNELS 3 Zrotation Yrotation Xrotation
			JOINT LeftLeg
			{
				OFFSET 2.448110 -6.726130 0.000000
				CHANNELS 3 Zrotation Yrotation Xrotation
				JOINT LeftFoot
				{
					OFFSET 2.562200 -7.039590 0.000000
					CHANNELS 3 Zrotation Yrotation Xrotation
					JOINT LeftToeBase
					{
						OFFSET 0.157640 -0.433110 2.322550
						CHANNELS 3 Zrotation Yrotation Xrotation
						End Site
						{
							OFFSET 0.000000 0.000000 0.000000
						}
					}
				}
			}
		}
	}
	JOINT RHipJoint
	{
		OFFSET 0.000000 0.000000 0.000000
		CHANNELS 3 Zrotation Yrotation Xrotation
		JOINT RightUpLeg
		{
			OFFSET -1.305520 -1.794630 0.839290
			CHANNELS 3 Zrotation Yrotation Xrotation
			JOINT RightLeg
			{
				OFFSET -2.542530 -6.985550 0.000000
				CHANNELS 3 Zrotation Yrotation Xrotation
				JOINT RightFoot
				{
					OFFSET -2.568260 -7.056230 0.000000
					CHANNELS 3 Zrotation Yrotation Xrotation
					JOINT RightToeBase
					{
						OFFSET -0.164730 -0.452590 2.363150
						CHANNELS 3 Zrotation Yrotation Xrotation
						End Site
						{
							OFFSET 0.000000 0.000000 0.000000
						}
					}
				}
			}
		}
	}
	JOINT LowerBack
	{
		OFFSET 0.000000 0.000000 0.000000
		CHANNELS 3 Zrotation Yrotation Xrotation
		JOINT Spine
		{
			OFFSET 0.028270 2.035590 -0.193380
			CHANNELS 3 Zrotation Yrotation Xrotation
			JOINT Spine1
			{
				OFFSET 0.056720 2.048850 -0.042750
				CHANNELS 3 Zrotation Yrotation Xrotation
				JOINT Neck
				{
					OFFSET 0.000000 0.000000 0.000000
					CHANNELS 3 Zrotation Yrotation Xrotation
					JOINT Neck1
					{
						OFFSET -0.054170 1.746240 0.172020
						CHANNELS 3 Zrotation Yrotation Xrotation
						JOINT Head
						{
							OFFSET 0.104070 1.761360 -0.123970
							CHANNELS 3 Zrotation Yrotation Xrotation
							End Site
							{
								OFFSET 0.000000 0.000000 0.000000
							}
						}
					}
				}
				JOINT LeftShoulder
				{
					OFFSET 0.000000 0.000000 0.000000
					CHANNELS 3 Zrotation Yrotation Xrotation
					JOINT LeftArm
					{
						OFFSET 3.362410 1.200890 -0.311210
						CHANNELS 3 Zrotation Yrotation Xrotation
						JOINT LeftForeArm
						{
							OFFSET 4.983000 -0.000000 -0.000000
							CHANNELS 3 Zrotation Yrotation Xrotation
							JOINT LeftHand
							{
								OFFSET 3.483560 -0.000000 -0.000000
								CHANNELS 3 Zrotation Yrotation Xrotation
								JOINT LeftFingerBase
								{
									OFFSET 0.000000 0.000000 0.000000
									CHANNELS 3 Zrotation Yrotation Xrotation
									JOINT LeftHandIndex1
									{
										OFFSET 0.715260 -0.000000 -0.000000
										CHANNELS 3 Zrotation Yrotation Xrotation
										End Site
										{
											OFFSET 0.000000 0.000000 0.000000
										}
									}
								}
								JOINT LThumb
								{
									OFFSET 0.000000 0.000000 0.000000
									CHANNELS 3 Zrotation Yrotation Xrotation
									End Site
									{
										OFFSET 0.000000 0.000000 0.000000
									}
								}
							}
						}
					}
				}
				JOINT RightShoulder
				{
					OFFSET 0.000000 0.000000 0.000000
					CHANNELS 3 Zrotation Yrotation Xrotation
					JOINT RightArm
					{
						OFFSET -3.136600 1.374050 -0.404650
						CHANNELS 3 Zrotation Yrotation Xrotation
						JOINT RightForeArm
						{
							OFFSET -5.241900 -0.000000 -0.000000
							CHANNELS 3 Zrotation Yrotation Xrotation
							JOINT RightHand
							{
								OFFSET -3.444170 -0.000000 -0.000000
								CHANNELS 3 Zrotation Yrotation Xrotation
								JOINT RightFingerBase
								{
									OFFSET 0.000000 0.000000 0.000000
									CHANNELS 3 Zrotation Yrotation Xrotation
									JOINT RightHandIndex1
									{
										OFFSET -0.622530 -0.000000 -0.000000
										CHANNELS 3 Zrotation Yrotation Xrotation
										End Site
										{
											OFFSET 0.000000 0.000000 0.000000
										}
									}
								}
								JOINT RThumb
								{
									OFFSET 0.000000 0.000000 0.000000
									CHANNELS 3 Zrotation Yrotation Xrotation
									End Site
									{
										OFFSET 0.000000 0.000000 0.000000
									}
								}
							}
						}
					}
				}
			}
		}
	}
}
MOTION
Frames: 6
Frame Time: 0.008333
-3.097805 7.187908 7.590685 -2.905497 -51.799623 -129.367259 119.200683 72.272408 76.926240 19.432116 -61.946634 -148.327477 154.800288 -38.749704 94.304476 -176.291125 -14.735499 -66.363081 0.730400 5.460300 15.226200 177.033431 4.098838 85.656664 158.989931 79.672245 -148.825574 64.526390 -23.357055 -168.354235 54.538496 -56.257452 -107.574200 -0.076800 1.788200 -4.920800 2.207023 5.405535 64.220700 -88.912140 -87.775170 -46.376711 -68.700439 -84.295730 53.187844 -130.524183 13.463607 -153.711079 138.462179 8.923676 96.396731 -1.563600 0.321200 7.707400 59.497228 81.470523 -46.560614 14.799786 -85.266343 -37.142950 166.301773 42.406851 134.547454 54.470641 -61.729511 -42.189917 -9.224736 -75.603593 -3.381999 -7.125000 0.000000 0.000000 -2.289000 21.534700 1.290000 56.207157 -36.049671 100.501971 -96.051852 71.784272 -76.325277 154.349760 69.787153 -46.877771 3.013058 19.053397 -70.835488 -5.176789 17.220682 -5.389800 7.125000 0.000000 0.000000 2.506200 -16.437000 1.696200 
-3.025961 7.215694 7.573663 2.905235 -14.375909 -39.614104 -35.330641 82.845695 155.719950 -121.547879 -83.569307 -72.146809 99.226342 -57.167533 143.746833 -163.327352 -45.026839 -121.664769 0.683500 5.285900 14.725900 126.837388 47.534897 127.398449 153.622971 4.261300 -137.112021 66.578917 26.077704 167.652945 -160.886712 -40.365858 14.145869 -0.083800 1.867700 -5.140300 153.356641 -42.098662 4.852441 111.256149 20.848442 -160.744125 120.685921 28.464714 -87.855957 -108.949683 -12.360615 -113.084907 -146.648933 60.791996 12.175915 -1.568400 0.259500 7.668700 164.114087 -51.569287 -173.317137 -120.836164 -39.653844 -126.456202 -170.207637 -57.920728 -42.120920 47.890023 -89.329161 -65.895968 -14.549081 -81.840598 -3.363400 -7.125000 0.000000 0.000000 -2.060400 21.683300 1.154000 155.275314 -11.580793 149.771842 109.615148 60.300543 -99.363675 -103.752325 -81.595052 -25.582392 -65.578478 75.105399 -49.175735 -173.870913 65.542007 173.566100 7.125000 0.000000 0.000000 1.649400 -14.618800 1.180200 
-2.933089 7.234719 7.543123 -177.928273 -52.167769 3.604881 -20.073515 -85.779907 47.151520 -86.657749 -5.719887 9.150463 -138.833942 -7.613656 155.010493 -167.893144 -14.326805 96.510480 0.559300 4.790500 13.312000 114.105612 26.755278 153.976716 -5.127761 87.241266 -35.267868 57.337088 6.147189 -27.296087 38.774406 76.013680 6.258789 -0.086800 1.900200 -5.230000 -88.097116 21.313587 -115.252080 59.655300 -54.848874 100.973681 -1.533427 76.284556 144.297976 -33.066551 -44.243782 30.468912 43.858853 61.435105 -173.623367 -1.609700 0.140300 7.527500 43.024109 75.535872 52.688473 -163.335461 1.867764 -1.865618 -44.686108 -9.854830 93.664839 57.095704 -82.205824 -63.158929 174.620420 -43.470344 176.720501 -7.125000 0.000000 0.000000 -1.598000 22.082800 0.880400 -127.750910 -76.788815 -74.976433 -30.300840 -17.062404 -156.399082 -121.202152 -47.186170 -52.033936 -51.659741 48.962199 -53.360915 -2.907184 79.163523 -7.129500 7.125000 0.000000 0.000000 0.934000 -13.631000 0.687700 
-2.896040 7.275272 7.533360 161.313282 55.081546 -68.617872 38.874554 12.390634 156.287265 5.928438 -36.395885 71.483472 -140.211805 55.003512 -161.639945 9.595320 -59.398070 172.177489 0.952300 6.214500 17.408200 119.739180 -79.517669 -163.852065 -70.284940 63.577827 -10.497121 42.439446 87.378001 -44.408842 -135.874360 -66.491691 -115.527423 -0.078300 1.805400 -4.968300 146.492560 -53.198003 40.015390 124.376887 14.296307 57.307485 -28.742263 -70.401875 60.622773 153.633851 -28.207277 -71.912467 -43.431414 77.955861 -80.164123 -1.644000 0.051500 7.507500 -51.280793 66.168737 141.870201 95.361473 41.864444 175.984609 7.427618 45.266760 157.497978 21.623098 -51.110726 -45.255664 -27.995251 -46.858778 -3.083000 -7.125000 0.000000 0.000000 -1.400600 22.628200 0.754100 12.754114 56.873036 106.225953 105.776722 -88.154590 -173.003546 52.214250 -0.983255 127.935194 -13.417306 -4.857557 -65.929837 -35.663281 41.881797 -7.552800 7.125000 0.000000 0.000000 0.047300 -13.428900 0.035000 
-2.857240 7.302308 7.502820 -153.497076 -27.397522 -135.819940 3.480708 28.321455 -132.255598 -174.532458 4.471732 35.630072 -146.984463 32.454421 66.529389 50.232172 19.919606 32.791921 0.891700 6.018800 16.839000 111.220244 34.214067 -114.319302 -39.609658 20.912714 0.239668 -37.306071 -83.340058 172.940846 -66.891371 36.119961 58.640508 -0.096100 1.999100 -5.503200 -119.425114 -23.348310 145.565203 -74.969378 -75.636493 58.642475 -95.255097 -37.548404 -125.888329 -159.253568 61.406112 -37.409943 -34.295019 -2.545097 5.559177 -1.600500 0.054600 7.620700 -171.402996 43.866120 -43.075899 89.273272 -9.322958 105.430570 -20.780335 22.743621 146.390070 32.612253 -35.275925 -40.869088 -7.488377 -31.150270 -2.963200 -7.125000 0.000000 0.000000 -1.563800 22.853200 0.834000 142.044513 -24.268389 140.875790 16.876537 62.058715 -87.029519 62.156998 -77.996053 132.336409 -20.552356 35.362400 -61.675027 -6.188997 49.658468 -7.824200 7.125000 0.000000 0.000000 -0.766700 -13.490000 -0.566700 
-2.737583 7.325838 7.499816 -7.692811 47.215642 14.438479 130.095956 -20.063699 20.941520 119.378716 61.530875 -0.988334 -1.748193 52.154002 -167.026030 -30.638962 -30.888907 113.432828 0.542100 4.717100 13.103300 67.493096 76.356861 -134.797729 124.196885 -0.671492 176.651832 154.951027 -14.785733 161.591786 -9.709758 84.028036 58.366624 -0.035400 1.214200 -3.338200 -129.711587 16.312506 19.673736 62.161611 34.697156 -61.014117 66.855690 41.115249 -129.974287 -153.895553 -70.162371 -114.621408 39.586231 -85.844955 -135.528911 -1.569500 -0.024500 7.413600 -16.926234 57.097059 -152.996571 -19.274740 -25.980778 14.732871 124.198982 58.478227 109.676496 50.474340 -32.033450 -70.167663 24.960384 -71.078003 -3.036900 -7.125000 0.000000 0.000000 -1.577800 22.671500 0.848100 77.335931 85.353146 -144.174802 75.883459 -11.052008 12.714909 -19.653186 76.679846 -33.655771 11.685142 17.075042 -63.763407 -7.633435 10.858421 -7.927398 7.125000 0.000000 0.000000 -1.390200 -13.735500 -1.020700 
